<svg xmlns="http://www.w3.org/2000/svg" width="122" height="45.384" viewBox="0 0 122 45.384">
  <g id="Group_1" data-name="Group 1" transform="translate(-857.6 -558.92)">
    <path id="Path_3" data-name="Path 3" d="M14.452-63.18v44.311H3.658V-45.443l-9.91,26.574h-8.711l-9.973-26.637v26.637l-10.794-4.5V-63.18h12.751L-10.544-32.5,1.764-63.18Z" transform="translate(965.148 622.731)" fill="#fff"/>
    <path id="Path_2" data-name="Path 2" d="M-9.613-18.7A23.127,23.127,0,0,1-21.07-21.6a21.706,21.706,0,0,1-8.269-8.111A22.669,22.669,0,0,1-32.4-41.419,22.5,22.5,0,0,1-29.339-53.1a21.774,21.774,0,0,1,8.269-8.08,23.127,23.127,0,0,1,11.457-2.9,23.127,23.127,0,0,1,11.457,2.9,21.318,21.318,0,0,1,8.206,8.08,22.868,22.868,0,0,1,3,11.678,22.852,22.852,0,0,1-3.03,11.709A21.542,21.542,0,0,1,1.812-21.6,22.951,22.951,0,0,1-9.613-18.7Zm0-9.847a10.874,10.874,0,0,0,8.49-3.535,13.419,13.419,0,0,0,3.188-9.342q0-5.87-3.188-9.374a10.922,10.922,0,0,0-8.49-3.5,11.046,11.046,0,0,0-8.553,3.472q-3.188,3.472-3.188,9.405,0,5.87,3.188,9.374A11,11,0,0,0-9.613-28.543Z" transform="translate(890 623)" fill="#fff"/>
    <path id="Path_4" data-name="Path 4" d="M-9.613-18.7A23.127,23.127,0,0,1-21.07-21.6a21.706,21.706,0,0,1-8.269-8.111A22.669,22.669,0,0,1-32.4-41.419,22.5,22.5,0,0,1-29.339-53.1a21.774,21.774,0,0,1,8.269-8.08,23.127,23.127,0,0,1,11.457-2.9,23.127,23.127,0,0,1,11.457,2.9,21.318,21.318,0,0,1,8.206,8.08,22.868,22.868,0,0,1,3,11.678,22.852,22.852,0,0,1-3.03,11.709A21.542,21.542,0,0,1,1.812-21.6,22.951,22.951,0,0,1-9.613-18.7Zm0-9.847a10.874,10.874,0,0,0,8.49-3.535,13.419,13.419,0,0,0,3.188-9.342q0-5.87-3.188-9.374a10.922,10.922,0,0,0-8.49-3.5,11.046,11.046,0,0,0-8.553,3.472q-3.188,3.472-3.188,9.405,0,5.87,3.188,9.374A11,11,0,0,0-9.613-28.543Z" transform="translate(925.769 623)"/>
  </g>
</svg>
