<svg xmlns="http://www.w3.org/2000/svg" version="1.1" xmlns:xlink="http://www.w3.org/1999/xlink" xmlns:svgjs="http://svgjs.com/svgjs" width="143" height="143"><svg xmlns="http://www.w3.org/2000/svg" width="143" height="143" viewBox="0 0 143 143">
  <g id="SvgjsG1005" data-name="Group 2075" transform="translate(-289 -7762)">
    <g id="SvgjsG1004" data-name="Rectangle 65" transform="translate(289 7762)" stroke="#707070" stroke-width="1">
      <rect width="143" height="143" rx="25" stroke="none"></rect>
      <rect x="0.5" y="0.5" width="142" height="142" rx="24.5" fill="none"></rect>
    </g>
    <g id="SvgjsG1003" data-name="Group 2074">
      <path id="SvgjsPath1002" data-name="Path 3" d="M14.452-63.18v44.311H3.658V-45.443l-9.91,26.574h-8.711l-9.973-26.637v26.637l-10.794-4.5V-63.18h12.751L-10.544-32.5,1.764-63.18Z" transform="translate(406.551 7874.812)" fill="#fff"></path>
      <path id="SvgjsPath1001" data-name="Path 2" d="M-9.613-18.7A23.127,23.127,0,0,1-21.07-21.6a21.706,21.706,0,0,1-8.269-8.111A22.669,22.669,0,0,1-32.4-41.419,22.5,22.5,0,0,1-29.339-53.1a21.774,21.774,0,0,1,8.269-8.08,23.127,23.127,0,0,1,11.457-2.9,23.127,23.127,0,0,1,11.457,2.9A21.318,21.318,0,0,1,10.05-53.1a22.868,22.868,0,0,1,3,11.678,22.852,22.852,0,0,1-3.03,11.709A21.542,21.542,0,0,1,1.812-21.6,22.951,22.951,0,0,1-9.613-18.7Zm0-9.847a10.874,10.874,0,0,0,8.49-3.535,13.419,13.419,0,0,0,3.188-9.342q0-5.87-3.188-9.374a10.922,10.922,0,0,0-8.49-3.5,11.046,11.046,0,0,0-8.553,3.472q-3.188,3.472-3.188,9.405,0,5.87,3.188,9.374a11,11,0,0,0,8.553,3.5Z" transform="translate(331.403 7875.081)" fill="#fff"></path>
      <path id="SvgjsPath1000" data-name="Path 4" d="M-9.613-18.7A23.127,23.127,0,0,1-21.07-21.6a21.706,21.706,0,0,1-8.269-8.111A22.669,22.669,0,0,1-32.4-41.419,22.5,22.5,0,0,1-29.339-53.1a21.774,21.774,0,0,1,8.269-8.08,23.127,23.127,0,0,1,11.457-2.9,23.127,23.127,0,0,1,11.457,2.9A21.318,21.318,0,0,1,10.05-53.1a22.868,22.868,0,0,1,3,11.678,22.852,22.852,0,0,1-3.03,11.709A21.542,21.542,0,0,1,1.812-21.6,22.951,22.951,0,0,1-9.613-18.7Zm0-9.847a10.874,10.874,0,0,0,8.49-3.535,13.419,13.419,0,0,0,3.188-9.342q0-5.87-3.188-9.374a10.922,10.922,0,0,0-8.49-3.5,11.046,11.046,0,0,0-8.553,3.472q-3.188,3.472-3.188,9.405,0,5.87,3.188,9.374a11,11,0,0,0,8.553,3.5Z" transform="translate(367.172 7875.081)" fill="#fff"></path>
    </g>
  </g>
</svg><style>@media (prefers-color-scheme: light) { :root { filter: none; } }
</style></svg>